<mxfile host="app.diagrams.net" modified="2021-01-14T21:43:43.372Z" agent="5.0 (X11; Linux x86_64) AppleWebKit/537.36 (KHTML, like Gecko) Chrome/87.0.4280.141 Safari/537.36" etag="t1zGJrYrHgaZg0vQbUPa" version="14.2.3" type="github">
  <diagram id="RcJKbHngvG14IukRQdUl" name="Page-1">
    <mxGraphModel dx="1350" dy="774" grid="1" gridSize="10" guides="1" tooltips="1" connect="1" arrows="1" fold="1" page="1" pageScale="1" pageWidth="850" pageHeight="1100" background="none" math="0" shadow="0">
      <root>
        <mxCell id="0" />
        <mxCell id="1" parent="0" />
        <mxCell id="3YCO89282Kwa_L9P0B6g-5" value="" style="rounded=0;whiteSpace=wrap;html=1;fontSize=20;" parent="1" vertex="1">
          <mxGeometry x="350" y="160" width="470" height="760" as="geometry" />
        </mxCell>
        <mxCell id="3YCO89282Kwa_L9P0B6g-1" value="Matcher" style="swimlane;startSize=50;fontSize=20;" parent="1" vertex="1">
          <mxGeometry x="10" y="40" width="1010" height="910" as="geometry" />
        </mxCell>
        <mxCell id="3YCO89282Kwa_L9P0B6g-2" value="Active Filters&lt;br&gt;&lt;br&gt;&lt;br&gt;Filter&lt;br&gt;Filter&lt;br&gt;Filter" style="whiteSpace=wrap;html=1;fontSize=20;" parent="3YCO89282Kwa_L9P0B6g-1" vertex="1">
          <mxGeometry x="140" y="120" width="160" height="360" as="geometry" />
        </mxCell>
        <mxCell id="3YCO89282Kwa_L9P0B6g-3" value="user email" style="text;html=1;strokeColor=none;fillColor=none;align=center;verticalAlign=middle;whiteSpace=wrap;rounded=0;fontSize=20;" parent="3YCO89282Kwa_L9P0B6g-1" vertex="1">
          <mxGeometry x="880" y="20" width="100" height="20" as="geometry" />
        </mxCell>
        <mxCell id="AsxjsOO8d4JErveRhFLo-1" value="&lt;p&gt;&lt;span style=&quot;background-color: rgb(255 , 255 , 255)&quot;&gt;Address&lt;/span&gt;&lt;/p&gt;&lt;p&gt;&lt;span style=&quot;background-color: rgb(255 , 255 , 255)&quot;&gt;Description&amp;nbsp;&lt;span style=&quot;font-size: 22.5625px&quot;&gt;Lorem ipsum dolor sit amet, consectetur adipiscing elit, sed do eiusmod tempor incididunt ut labore et dolore magna aliqua. Mi sit amet mauris commodo quis imperdiet massa tincidunt nunc.&lt;/span&gt;&lt;/span&gt;&lt;/p&gt;" style="text;html=1;align=center;verticalAlign=middle;whiteSpace=wrap;rounded=0;fontSize=20;strokeColor=#000000;" vertex="1" parent="3YCO89282Kwa_L9P0B6g-1">
          <mxGeometry x="370" y="490" width="400" height="290" as="geometry" />
        </mxCell>
        <mxCell id="AsxjsOO8d4JErveRhFLo-3" value="" style="html=1;aspect=fixed;strokeColor=none;shadow=0;align=center;verticalAlign=top;fillColor=#2D9C5E;shape=mxgraph.gcp2.check;fontSize=20;" vertex="1" parent="3YCO89282Kwa_L9P0B6g-1">
          <mxGeometry x="660" y="790" width="100" height="80" as="geometry" />
        </mxCell>
        <mxCell id="AsxjsOO8d4JErveRhFLo-4" value="" style="shape=image;html=1;verticalAlign=top;verticalLabelPosition=bottom;labelBackgroundColor=#ffffff;imageAspect=0;aspect=fixed;image=https://cdn3.iconfinder.com/data/icons/flat-actions-icons-9/792/Close_Icon_Dark-128.png;strokeColor=#000000;fontSize=20;" vertex="1" parent="3YCO89282Kwa_L9P0B6g-1">
          <mxGeometry x="390" y="782" width="108" height="108" as="geometry" />
        </mxCell>
        <mxCell id="3YCO89282Kwa_L9P0B6g-6" value="IMG" style="whiteSpace=wrap;html=1;aspect=fixed;fontSize=20;" parent="1" vertex="1">
          <mxGeometry x="470" y="210" width="230" height="230" as="geometry" />
        </mxCell>
        <mxCell id="3YCO89282Kwa_L9P0B6g-7" value="Restaurant Name" style="text;html=1;strokeColor=none;fillColor=none;align=center;verticalAlign=middle;whiteSpace=wrap;rounded=0;fontSize=20;" parent="1" vertex="1">
          <mxGeometry x="475" y="180" width="220" height="20" as="geometry" />
        </mxCell>
        <mxCell id="3YCO89282Kwa_L9P0B6g-8" value="" style="verticalLabelPosition=bottom;verticalAlign=top;html=1;shape=mxgraph.basic.star;fontSize=20;" parent="1" vertex="1">
          <mxGeometry x="477.5" y="450" width="31.58" height="30" as="geometry" />
        </mxCell>
        <mxCell id="3YCO89282Kwa_L9P0B6g-9" value="" style="verticalLabelPosition=bottom;verticalAlign=top;html=1;shape=mxgraph.basic.star;fontSize=20;" parent="1" vertex="1">
          <mxGeometry x="522.5" y="450" width="31.58" height="30" as="geometry" />
        </mxCell>
        <mxCell id="3YCO89282Kwa_L9P0B6g-10" value="" style="verticalLabelPosition=bottom;verticalAlign=top;html=1;shape=mxgraph.basic.star;fontSize=20;" parent="1" vertex="1">
          <mxGeometry x="566.71" y="450" width="31.58" height="30" as="geometry" />
        </mxCell>
        <mxCell id="3YCO89282Kwa_L9P0B6g-11" value="" style="verticalLabelPosition=bottom;verticalAlign=top;html=1;shape=mxgraph.basic.star;fontSize=20;" parent="1" vertex="1">
          <mxGeometry x="612.5" y="450" width="31.58" height="30" as="geometry" />
        </mxCell>
        <mxCell id="3YCO89282Kwa_L9P0B6g-12" value="" style="verticalLabelPosition=bottom;verticalAlign=top;html=1;shape=mxgraph.basic.star;fontSize=20;" parent="1" vertex="1">
          <mxGeometry x="660.92" y="450" width="31.58" height="30" as="geometry" />
        </mxCell>
        <mxCell id="3YCO89282Kwa_L9P0B6g-27" value="Tag" style="text;html=1;strokeColor=none;fillColor=none;align=center;verticalAlign=middle;whiteSpace=wrap;rounded=0;fontSize=20;" parent="1" vertex="1">
          <mxGeometry x="517.5" y="500" width="40" height="20" as="geometry" />
        </mxCell>
        <mxCell id="3YCO89282Kwa_L9P0B6g-28" value="Tag" style="text;html=1;strokeColor=none;fillColor=none;align=center;verticalAlign=middle;whiteSpace=wrap;rounded=0;fontSize=20;" parent="1" vertex="1">
          <mxGeometry x="564.0799999999999" y="500" width="40" height="20" as="geometry" />
        </mxCell>
        <mxCell id="3YCO89282Kwa_L9P0B6g-29" value="Tag" style="text;html=1;strokeColor=none;fillColor=none;align=center;verticalAlign=middle;whiteSpace=wrap;rounded=0;fontSize=20;" parent="1" vertex="1">
          <mxGeometry x="612.5" y="500" width="40" height="20" as="geometry" />
        </mxCell>
      </root>
    </mxGraphModel>
  </diagram>
</mxfile>
